<svg width="129" height="32" viewBox="0 0 129 32" fill="none" xmlns="http://www.w3.org/2000/svg">
<path d="M11.7971 13.0362L6.07795 9.65254V31.5H0.358795V6.32435V0.5L11.7971 7.21186V13.0362ZM17.5713 13.0362V7.21186L29.0646 0.5V6.32435V31.5H23.3454V9.65254L17.5713 13.0362ZM17.5713 13.0362V31.5H11.7971V13.0362H17.5713Z" fill="url(#paint0_linear_2002_69650)"/>
<path d="M54.9397 8.684V27.084H50.6139V18.1994L46.8874 27.084H43.2652L39.5909 18.252V27.084H35.265V8.684H39.4084L45.1154 21.4589L50.7963 8.684H54.9397ZM61.9497 8.5V11.996H57.8323V8.5H61.9497ZM61.9497 13.4154V27.084H57.8323V13.4154H61.9497ZM71.331 13.1789C74.406 13.1789 78.7057 15.5183 77.8458 21.6954H68.3863C68.8554 23.1149 70.0801 23.8509 71.7219 23.8509C73.3897 23.8509 73.9108 23.4829 74.849 23.0886L77.1161 25.2966C75.9174 26.4794 74.3017 27.3469 71.5655 27.3469C68.2039 27.3469 64.1908 25.0074 64.1908 20.3023C64.1908 15.5183 68.256 13.1789 71.331 13.1789ZM71.331 16.7274C70.1583 16.7274 68.9596 17.4109 68.4384 18.7777H74.1975C73.7805 17.4109 72.5036 16.7274 71.331 16.7274ZM86.6277 17.7263C86.2629 16.78 85.7157 16.4646 85.1163 16.4646C84.569 16.4646 84.0218 16.78 84.0218 17.3057C84.0218 17.8052 84.3345 18.0943 84.9339 18.3046L86.6538 18.9092C88.5822 19.6189 90.5366 20.3286 90.5366 23.0623C90.5366 25.8223 87.8004 27.3995 84.986 27.3995C82.4583 27.3995 80.0869 25.9012 79.5136 23.5092L82.7449 22.484C83.0837 23.2463 83.683 24.1137 84.986 24.1137C85.872 24.1137 86.4453 23.5354 86.4453 23.0097C86.4453 22.7469 86.2368 22.4052 85.5854 22.1423L83.9957 21.564C81.2856 20.5652 80.0087 19.172 80.0087 17.2269C80.0087 14.6772 82.354 13.1789 84.9339 13.1789C87.5659 13.1789 89.3118 14.6246 90.0936 16.8063L86.6277 17.7263ZM99.2404 23.6143C99.97 23.6143 100.491 23.5092 101.065 23.3514V26.7949C100.491 27.0577 99.5531 27.2417 98.172 27.2417C95.9048 27.2417 94.0025 26.4795 94.0025 22.2737V16.8326H92.1002V13.4154H94.0025V10.2086H98.1198V13.4154H101.012V16.8326H98.1198V22.2737C98.1198 22.8783 98.2762 23.6143 99.2404 23.6143ZM111.957 13.2051C112.322 13.2051 112.687 13.2051 113.026 13.284V17.2532C112.713 17.1743 112.348 17.1743 112.088 17.1743C109.586 17.1743 107.579 18.988 107.371 21.5114V27.084H103.254V13.4154H107.371V16.7537C107.996 14.7034 109.56 13.2051 111.957 13.2051ZM121.86 13.1789C124.935 13.1789 129 15.5183 129 20.3023C129 25.1126 124.935 27.3469 121.86 27.3469C118.785 27.3469 114.72 25.1126 114.72 20.3023C114.72 15.5183 118.785 13.1789 121.86 13.1789ZM121.86 16.8326C120.296 16.8326 118.707 18.0417 118.707 20.3023C118.707 22.484 120.296 23.6932 121.86 23.6932C123.423 23.6932 125.039 22.484 125.039 20.3023C125.039 18.0417 123.423 16.8326 121.86 16.8326Z" fill="#131F1E"/>
<defs>
<linearGradient id="paint0_linear_2002_69650" x1="0.358795" y1="0.5" x2="29.0646" y2="0.5" gradientUnits="userSpaceOnUse">
<stop stop-color="#006838"/>
<stop offset="1" stop-color="#96CF24"/>
</linearGradient>
</defs>
</svg>
